<svg width="15" height="12" viewBox="0 0 15 12" fill="none" xmlns="http://www.w3.org/2000/svg">
<path d="M13.875 0.542385H1.125C0.995912 0.542789 0.869379 0.578393 0.759021 0.645361C0.648663 0.71233 0.558658 0.808127 0.498694 0.922443C0.438731 1.03676 0.41108 1.16527 0.418718 1.29413C0.426356 1.42299 0.468993 1.54733 0.542041 1.65376L6.91704 10.8621C7.18125 11.2439 7.81733 11.2439 8.08225 10.8621L14.4573 1.65376C14.531 1.54755 14.5743 1.42315 14.5824 1.29407C14.5904 1.165 14.5629 1.03618 14.5029 0.921621C14.4429 0.807063 14.3526 0.711143 14.2419 0.644283C14.1312 0.577423 14.0043 0.542182 13.875 0.542385ZM7.5 9.21451L2.4765 1.95905H12.5235L7.5 9.21451Z" fill="#F8F8F8"/>
</svg>
