<svg width="15" height="12" viewBox="0 0 15 12" fill="none" xmlns="http://www.w3.org/2000/svg">
<path d="M1.125 11.4576H13.875C14.0041 11.4572 14.1306 11.4216 14.241 11.3546C14.3513 11.2877 14.4413 11.1919 14.5013 11.0776C14.5613 10.9632 14.5889 10.8347 14.5813 10.7059C14.5736 10.577 14.531 10.4527 14.458 10.3462L8.08296 1.13791C7.81875 0.756115 7.18267 0.756115 6.91775 1.13791L0.542749 10.3462C0.468959 10.4524 0.425686 10.5769 0.417633 10.7059C0.40958 10.835 0.437055 10.9638 0.497072 11.0784C0.557089 11.1929 0.647353 11.2889 0.758057 11.3557C0.868762 11.4226 0.995672 11.4578 1.125 11.4576Z" fill="#F8F8F8"/>
</svg>
